<svg width="686" height="236" viewBox="0 0 686 236" fill="none" xmlns="http://www.w3.org/2000/svg">
<path d="M584.662 155.273C586.521 156.297 588.286 156.926 590.497 155.975C591.307 155.265 592.118 154.554 592.928 153.843C594.043 151.934 594.276 150.42 594.457 149.244C594.843 146.735 594.992 145.763 602.961 145.774C604.253 145.775 605.398 145.769 606.414 145.762C613.908 145.717 614.342 145.715 614.205 149.539C614.174 150.395 614.065 151.101 613.95 151.836C613.915 152.065 613.879 152.297 613.844 152.538C613.087 157.869 612.031 161.721 605.081 161.786C603.456 161.801 601.823 161.709 600.202 161.618C596.314 161.399 592.494 161.184 589.018 162.459C588.891 162.506 588.757 162.553 588.627 162.6L588.605 162.608L587.76 162.871C584.076 164.166 579.454 168.365 577.962 171.078C576.422 173.881 575.563 177.197 575.112 180.267C574.984 181.138 574.859 181.961 574.741 182.739C573.89 188.33 573.394 191.59 574.776 193.466C576.708 196.089 582.308 196.011 595.735 195.823H595.737C599.968 195.763 604.977 195.693 610.893 195.693C613.251 195.693 614.419 195.199 615.739 194.005C621.476 188.82 617.639 185.359 615.863 183.757C615.482 183.413 615.196 183.155 615.12 182.984L594.5 182.895C593.999 182.895 593.501 182.913 593.012 182.93C591.339 182.988 589.773 183.043 588.56 182.405C587.619 179.047 589.438 177.039 590.54 175.822L590.544 175.818C590.634 175.718 590.72 175.624 590.799 175.534C591.668 175.039 593.942 175.07 596.869 175.11C601.688 175.175 608.279 175.265 613.297 173.073C619.486 170.369 623.395 165.731 625.49 158.934L627.626 145.28C627.626 137.924 621.333 132.653 615.131 132.653C613.349 132.653 611.502 132.599 609.636 132.544C601.543 132.307 593.09 132.06 588.023 136.169C583.726 139.654 581.654 146.955 581.637 152.151C582.065 152.733 582.305 153.134 582.49 153.442C582.931 154.179 583.057 154.389 584.662 155.273Z" fill="#4E7B56"/>
<path d="M408.747 160.613C408.747 158.402 407.426 157.014 406.092 156.097C399.302 151.428 395.934 160.555 394.508 164.77L390.776 175.626L387.044 186.483C385.674 190.277 384.311 194.046 383.151 197.233C382.689 198.504 382.42 199.487 382.156 200.455C381.946 201.225 381.739 201.985 381.439 202.871L378.676 210.898C378.436 211.59 378.308 211.841 378.192 212.07C378.059 212.332 377.941 212.564 377.687 213.4C376.915 215.938 376.075 218.197 375.323 220.22C372.96 226.573 371.462 230.6 375.66 233.635C378.844 235.936 383.793 233.985 385.521 230.826L403.001 180.154C403.331 179.176 403.754 177.987 404.219 176.676C406.121 171.319 408.747 163.926 408.747 160.613Z" fill="black"/>
<path fill-rule="evenodd" clip-rule="evenodd" d="M400.326 136.658C400.964 134.965 402.105 134.138 404.161 133.5C406.03 132.92 419.289 133.113 427.34 133.231L427.341 133.231L427.36 133.231C429.735 133.266 431.655 133.294 432.691 133.293C437.792 133.29 441.672 133.468 443.254 136.997C443.967 138.587 443.852 141.679 443.203 143.153C441.39 147.266 434.287 147.016 428.555 146.814C427.391 146.773 426.283 146.734 425.288 146.734C423.726 146.734 421.992 146.79 420.186 146.848C412.159 147.106 402.698 147.411 400.544 143.07C399.614 141.195 399.575 138.652 400.326 136.658ZM38.4918 168.789C37.528 167.568 37.2249 166.218 37.2249 164.313C37.2249 156.493 48.3604 157.028 57.0336 157.445C58.8401 157.532 60.5399 157.614 62.0099 157.614C64.0439 157.614 66.0339 157.521 67.9404 157.432C74.3739 157.133 79.858 156.877 82.8846 160.377C84.4948 162.239 84.4824 162.399 84.2436 165.483C84.2104 165.913 84.1727 166.399 84.1345 166.955C83.4851 167.303 83.0832 167.868 82.65 168.477C81.9277 169.493 81.1186 170.63 78.9312 171.087C75.5445 171.79 66.8621 171.604 60.3007 171.463C58.0553 171.415 56.0583 171.372 54.6069 171.372C53.4436 171.372 52.2129 171.433 50.9639 171.494C46.1247 171.731 41.012 171.982 38.4918 168.789ZM203.847 89.7241C207.24 90.3088 209.705 93.1431 209.705 96.6391C209.705 99.6737 206.863 102.285 204.743 102.888C202.61 103.494 184.269 103.325 175.547 103.244C173.634 103.226 172.184 103.213 171.469 103.213C170.229 103.213 168.741 103.272 167.131 103.335C161.276 103.567 153.812 103.863 150.824 101.618C146.673 98.4986 147.011 92.5103 151.336 90.294C153.438 89.2172 155.634 89.5732 156.507 89.7146C156.59 89.7282 156.662 89.7397 156.72 89.7479C159.054 90.0769 172.298 89.8972 184.1 89.737C193.65 89.6074 202.255 89.4906 203.372 89.6666C203.403 89.6716 203.434 89.6758 203.465 89.6794C203.49 89.6824 203.515 89.685 203.54 89.6875L203.591 89.6925C203.674 89.7005 203.757 89.7086 203.847 89.7241ZM426.33 155.901C430.515 155.901 433.79 158.814 432.424 163.785C432.084 165.022 431.774 165.969 431.432 167.012C431.218 167.667 430.99 168.36 430.736 169.187L423.273 190.347C422.986 191.171 422.748 191.932 422.512 192.687C422.19 193.713 421.873 194.728 421.442 195.874C421.033 196.962 420.777 197.746 420.533 198.492C420.275 199.281 420.032 200.027 419.637 201.042L410.282 227.571C410.127 228.008 409.986 228.429 409.851 228.831C408.696 232.265 407.981 234.391 403.127 234.705C399.362 234.95 395.595 231.492 397.1 226.497L407.817 194.493C408.537 192.608 409.122 190.766 409.717 188.893L409.717 188.892L409.718 188.89C410.246 187.227 410.781 185.54 411.426 183.778L413.791 177.443L416.157 171.108C416.432 170.133 416.619 169.622 416.912 168.826L416.917 168.811L416.923 168.794L417.009 168.562C417.037 168.486 417.065 168.407 417.095 168.325C417.381 167.54 417.643 166.636 417.92 165.681C419.184 161.32 420.756 155.9 426.33 155.901ZM261.439 80.402C255.266 80.4502 249.844 80.4926 246.029 80.4926C245.548 80.4926 244.925 80.5553 244.208 80.6274C241.576 80.8924 237.686 81.2838 235.025 79.1577C234.289 78.5703 233.631 77.647 233.315 76.7482C231.394 71.2808 235.382 67.2431 239.658 67.0465C246.98 66.71 254.918 66.8269 262.695 66.9414C266.553 66.9982 270.371 67.0545 274.054 67.0545H308.426C309.507 67.0545 310.618 67.0169 311.728 66.9794C316.541 66.8169 321.342 66.6547 323.628 69.5494C327.213 74.0893 323.686 77.8814 322.209 79.4701C321.915 79.7853 321.703 80.0137 321.643 80.1441C321.098 80.2456 320.648 80.3361 320.253 80.4159C319.03 80.6622 318.324 80.8046 316.905 80.8426C316.219 80.8607 314.924 80.8577 314.254 80.8014C305.397 80.0587 280.017 80.2569 261.439 80.402ZM4.15774 137.141C4.22521 137.25 4.33506 137.426 5.09887 137.081C6.01964 136.665 5.58845 136.657 5.34008 136.653C5.09694 136.648 5.02899 136.647 6.57592 136.269C6.9905 136.168 7.29651 136.165 7.66065 136.161C7.7855 136.16 7.91718 136.159 8.06241 136.153C8.80831 136.126 9.63269 136.141 10.4414 136.157C10.8965 136.165 11.3466 136.174 11.775 136.174C14.4754 136.178 19.6767 136.141 26.2267 136.094L26.2353 136.094C50.5884 135.92 93.572 135.613 95.9976 136.783C101.594 139.483 100.983 146.904 95.8019 148.896C92.7552 150.066 50.6495 149.819 26.3545 149.676H26.3519H26.349H26.346H26.3426C19.8527 149.638 14.6349 149.607 11.7743 149.613L11.5416 149.614L11.3103 149.615C7.12107 149.629 3.58277 149.64 1.5 145.721C0.0891031 143.066 1.23317 139.994 3.03374 138.072C4.05679 136.979 4.07659 137.011 4.15774 137.141ZM163.679 111.208C164.699 111.263 165.702 111.317 166.549 111.216C169.375 110.878 172.554 110.996 175.706 111.114C177.503 111.18 179.291 111.247 181 111.228C182.814 111.209 185.588 111.171 189.021 111.123C209.07 110.847 251.61 110.26 256.783 111.253C264.247 112.688 266.693 124.699 252.374 124.655C250.661 124.65 244.925 124.675 237.095 124.709L237.059 124.71L237.056 124.71H237.054H237.052C211.225 124.823 162.702 125.036 160.522 124.589C157.227 123.914 152.945 119.774 155.667 115.298C156.275 114.298 158.256 111.898 159.53 111.445C160.658 111.044 162.186 111.127 163.679 111.208ZM217.383 76.5456C217.307 76.6004 213.845 80.2148 213.77 80.3285C206.762 80.9342 166.669 80.7124 141.333 80.5723L141.325 80.5722C133.4 80.5284 126.919 80.4926 123.349 80.4926C122.4 80.4926 121.393 80.5236 120.363 80.5554C116.409 80.6774 112.124 80.8095 109.558 79.2332C106.229 77.1885 105.731 72.1704 108.907 68.9832C111.305 66.5765 115.454 66.7739 119.339 66.9588C120.353 67.0071 121.349 67.0545 122.292 67.0545L211.653 67.1372C215.85 67.6815 218.187 71.8095 217.383 76.5456ZM215.448 213.251C212.023 212.993 208.782 211.28 208.145 207.139C207.225 201.17 212.654 199.511 217.999 199.531L305.253 199.855C306.883 199.855 308.637 199.887 310.436 199.92C314.646 199.997 319.103 200.079 322.799 199.763C327.645 199.349 334.219 200.101 334.213 206.065C334.207 212.058 330.269 213.323 324.297 213.299L271.943 213.297L219.589 213.296C219.249 213.297 218.905 213.3 218.561 213.304C217.521 213.316 216.468 213.327 215.448 213.251ZM152.655 154.073C154.615 154.913 156.763 157.779 156.291 160.613C155.894 162.997 143.504 196.075 138.073 202.343C135.798 204.968 131.709 208.166 128.629 209.804C125.052 211.706 122.997 212.396 118.977 212.899C115.009 213.393 110.402 213.245 105.98 213.102C103.949 213.037 101.956 212.973 100.083 212.973C98.2155 212.973 96.2222 213.043 94.192 213.114C88.6685 213.308 82.8712 213.512 78.5975 212.341C73.4456 210.93 67.771 206.798 65.6802 203.59C62.8493 199.246 60.1692 192.325 60.7876 186.901C61.3806 181.701 63.4177 178.421 69.5092 179.467C71.6809 179.84 72.1764 180.495 73.1553 181.994C74.1539 183.522 74.1074 185.023 74.0556 186.695C74.0079 188.234 73.9558 189.918 74.711 191.9C74.7316 191.954 74.7575 192.014 74.7834 192.075C74.8078 192.132 74.8321 192.189 74.8516 192.239L74.869 192.284C75.8802 194.893 76.2075 195.737 79.489 197.701C82.7782 199.67 90.3872 199.45 95.9538 199.289C97.3043 199.25 98.5346 199.214 99.5538 199.214C101.582 199.214 103.635 199.305 105.665 199.394C112.55 199.698 119.171 199.99 123.675 196.699L123.956 196.472L124.236 196.246C130.424 191.236 132.41 186.062 134.848 179.711C135.784 177.273 136.787 174.661 138.12 171.818C138.708 170.564 139.292 168.898 139.93 167.08C142.359 160.158 145.561 151.032 152.655 154.073ZM536.871 161.746L536.871 161.748L536.87 161.761L536.869 161.774C536.861 161.889 536.851 162.029 536.839 162.199C538.805 163.596 546.725 163.316 551.702 163.141C553.002 163.095 554.101 163.056 554.841 163.056C559.683 163.056 560.883 158.027 561.515 153.49L561.576 153.05C562.061 149.581 562.322 147.711 561.511 146.721C560.562 145.564 558.148 145.608 552.911 145.704C550.969 145.739 548.639 145.782 545.851 145.773C545.193 145.771 544.598 145.755 544.06 145.74C540.692 145.647 539.576 145.617 539.077 149.548L538.824 151.496C538.672 152.248 538.546 152.687 538.429 153.094C538.286 153.593 538.156 154.044 538.011 154.961C537.722 156.772 537.432 158.583 537.143 160.393C537.02 160.968 536.967 161.09 536.939 161.155L536.938 161.156C536.934 161.166 536.93 161.175 536.927 161.183C536.906 161.239 536.901 161.302 536.871 161.746ZM546.739 176.052C542.23 176.046 536.82 176.038 534.311 175.534C532.653 178.208 532.102 181.8 531.579 185.202C530.961 189.227 530.384 192.987 528.064 194.649C523.201 198.132 518.502 195.43 517.697 191.917C517.322 190.283 520.838 174.824 523.644 162.482L523.645 162.479C525.286 155.263 526.685 149.114 526.921 147.418C527.555 142.877 528.074 140.881 531.085 137.353L536.489 133.745C540.232 132.505 564.224 132.033 568.351 134.504C569.657 135.286 570.512 135.848 571.161 136.472L574.92 142.307C576.309 147.319 574.414 154.438 573.026 159.656C572.888 160.175 572.754 160.675 572.63 161.152C570.058 171.026 561.336 176.412 551.786 176.1C550.48 176.057 548.694 176.055 546.739 176.052ZM646.523 162.468C646.55 162.483 646.59 162.475 646.645 162.464C646.79 162.434 647.036 162.383 647.377 162.713C648.462 163.601 664.853 163.417 666.669 162.512C669.767 160.966 670.497 156.71 671.087 153.271C671.201 152.609 671.309 151.977 671.428 151.401L671.722 149.566L672.015 147.73C672.075 145.5 668.602 145.454 665.887 145.454H652.667C649.228 145.454 649.093 146.413 648.511 150.549C648.415 151.233 648.306 152.004 648.169 152.872C648.02 153.808 647.862 154.502 647.71 155.173L647.71 155.174C647.519 156.015 647.337 156.818 647.192 158.01C647.087 158.878 647.032 159.173 646.935 159.691L646.935 159.692L646.904 159.858C646.871 160.039 646.832 160.252 646.785 160.521C646.738 160.791 646.696 161.024 646.66 161.226C646.491 162.178 646.448 162.423 646.523 162.468ZM643.876 176.771C643.799 176.806 643.651 176.908 643.535 176.971C643.451 177.136 643.397 177.236 643.359 177.304C643.344 177.332 643.332 177.355 643.321 177.375C643.307 177.402 643.296 177.424 643.287 177.447C643.269 177.493 643.258 177.543 643.234 177.651C643.214 177.743 643.184 177.877 643.133 178.087L643.043 178.548L642.952 179.02C642.329 181.636 641.896 183.84 641.531 185.697C639.935 193.827 639.643 195.313 630.351 195.704C629.728 194.767 629.209 194.114 628.792 193.59C627.391 191.829 627.141 191.514 628.01 186.728C628.668 183.109 629.311 179.681 630.382 175.863L636.281 148.919C636.601 146.856 636.954 145.513 637.418 143.748L637.521 143.355C638.413 139.953 639.956 137.225 642.711 135.331C647.441 132.078 654.723 132.185 662.269 132.295C663.647 132.315 665.034 132.335 666.416 132.335C667.182 132.335 667.909 132.325 668.606 132.315C672.217 132.264 675.006 132.225 678.159 133.683C678.918 134.034 679.203 134.224 679.651 134.522L679.653 134.524L679.674 134.537C679.755 134.591 679.841 134.649 679.937 134.712L680.007 134.758C680.045 134.782 680.084 134.808 680.125 134.834C682.175 136.15 683.709 137.796 684.58 140.45C685.812 144.209 684.358 152.259 683.382 157.667C683.254 158.375 683.134 159.038 683.03 159.639C682.98 159.928 682.943 160.151 682.913 160.327L682.91 160.344L682.91 160.346L682.91 160.348C682.844 160.744 682.818 160.899 682.772 161.048C682.743 161.143 682.705 161.236 682.644 161.388C682.549 161.622 682.398 161.997 682.132 162.74C677.163 176.612 665.197 176.366 653.992 176.136C651.359 176.081 648.769 176.028 646.321 176.159L644.217 176.581C644.189 176.592 644.155 176.61 644.119 176.63C644.086 176.649 644.05 176.67 644.017 176.69L644.011 176.694L644.009 176.695C643.956 176.727 643.908 176.756 643.876 176.771ZM314.092 235.16C313.176 235.106 312.326 235.055 311.598 235.055L261.195 235.054L210.792 235.052C200.349 233.83 192.075 225.241 186.994 216.717L185.714 214.141C185.579 213.826 185.433 213.491 185.28 213.14C184.373 211.062 183.228 208.441 182.833 206.081C182.553 204.409 183.209 202.87 183.703 201.957C186.427 196.92 193.364 198.706 194.869 201.335C195.693 202.772 196.151 204.217 196.627 205.717C197.871 209.635 199.234 213.931 207.533 219.463C212.348 222.674 226.24 222.305 235.883 222.048C238.146 221.988 240.175 221.934 241.798 221.934L275.642 221.935L309.487 221.935C309.734 221.936 309.997 221.941 310.265 221.946C310.893 221.957 311.552 221.969 312.115 221.937C312.563 221.911 313.061 221.871 313.594 221.828C318.057 221.467 324.959 220.909 325.83 227.241C327.027 235.933 319.433 235.48 314.092 235.16ZM170.622 167.757C163.525 166.289 163.616 156.902 170.11 155.024C173.245 154.118 195.56 154.441 208.846 154.634L208.848 154.634L208.867 154.634C212.738 154.69 215.84 154.735 217.474 154.735C219.464 154.735 224.236 154.718 230.778 154.695C261.82 154.584 332.716 154.33 335.329 155.081L337.052 156.199L338.776 157.316C340.919 159.907 340.922 163.606 338.301 166.159C335.187 169.192 326.88 168.802 318.795 168.422C316.131 168.297 313.492 168.173 311.069 168.173C307.467 168.173 300.037 168.203 290.388 168.241H290.382H290.376H290.371H290.366H290.365C251.109 168.396 175.161 168.697 170.622 167.757ZM178.679 146.392H178.677H178.674H178.671H178.668C176.136 146.403 173.569 146.414 170.94 146.414C168.998 146.414 166.844 146.6 164.647 146.79C157.079 147.445 149.015 148.143 147.427 141.406C146.523 137.57 149.272 132.972 156.399 132.975L338.587 133.283C342.928 133.295 345.068 134.188 346.357 136.985C346.998 138.374 347.363 140.315 346.942 142.073C345.626 147.571 336.92 146.632 335.16 146.442C335.003 146.425 334.902 146.414 334.865 146.414L205.833 146.792C196.426 146.317 187.779 146.354 178.679 146.392ZM191.034 190.582C185.047 190.295 174.967 190.316 169.261 191.04C168.507 191.904 167.384 194.345 166.055 197.233C164.759 200.051 163.267 203.295 161.73 205.915C160.2 208.523 159.194 209.888 158.197 211.241C157.463 212.237 156.734 213.226 155.805 214.699C153.447 218.437 147.129 223.614 144.25 225.955C141.701 228.027 136.773 230.191 132.855 231.911C131.658 232.437 130.556 232.921 129.644 233.349C122.841 235.89 111.127 235.531 101.323 235.23C98.3852 235.14 95.6192 235.055 93.2084 235.055C92.1266 235.055 90.9436 235.072 89.689 235.09C82.0411 235.2 71.7324 235.349 65.4916 231.905L55.0752 225.203L49.3073 219.3C48.5795 218.435 48.0962 217.606 47.6084 216.77C47.2668 216.185 46.923 215.596 46.4915 214.987L44.9668 212.68C44.5586 212.003 44.292 211.496 43.9187 210.785C43.8335 210.623 43.7426 210.45 43.6432 210.262C42.9584 208.968 41.9689 206.866 41.3245 205.072C39.1116 198.91 37.5348 193.154 37.7676 185.955C38.0136 178.342 51.0197 175.298 51.341 187.08C51.3819 188.58 51.3774 189.396 51.3746 189.9C51.3723 190.318 51.3712 190.52 51.3984 190.719C51.4238 190.903 51.4738 191.084 51.5704 191.434C51.7141 191.955 51.9611 192.849 52.3838 194.686L53.649 198.213L54.9142 201.741C55.689 203.306 56.1591 204.3 56.4857 204.99C56.8351 205.729 57.0203 206.121 57.239 206.493C57.4859 206.913 57.7754 207.309 58.3917 208.15C58.6852 208.55 59.0528 209.052 59.5252 209.706C62.3859 213.665 67.0057 217.25 71.3034 219.534C76.2436 222.16 85.6124 222.06 93.0995 221.98H93.1015H93.1034H93.1053H93.1072C94.2608 221.967 95.3697 221.956 96.4107 221.954C97.4502 221.953 98.9 221.976 100.597 222.002C107.301 222.107 117.863 222.272 122.237 221.26C128.128 219.896 134.53 216.977 138.813 213.034C139.135 212.738 139.505 212.452 139.879 212.164C140.197 211.918 140.518 211.67 140.813 211.413C142.256 210.149 143.285 208.709 144.326 207.252C145.007 206.3 145.692 205.341 146.502 204.418C146.693 204.201 146.843 204.049 146.966 203.924C147.077 203.812 147.167 203.721 147.246 203.624L149.599 199.644L151.951 195.665C153.257 193.307 154.131 191.1 155.145 188.277C159.157 177.106 159.676 177.118 170.944 177.363C172.889 177.406 175.155 177.455 177.815 177.455C182.658 177.455 187.502 177.459 192.345 177.463C202.132 177.472 211.918 177.48 221.702 177.454L221.96 177.453C225.586 177.443 228.398 177.435 230.512 179.278C232.58 181.081 233.349 184.651 232.112 187.37C230.272 191.416 222.688 191.168 216.65 190.971C215.431 190.931 214.276 190.893 213.243 190.893C212.472 190.893 211.703 190.894 210.936 190.894C204.247 190.899 197.728 190.903 191.034 190.582Z" fill="black"/>
<path d="M321.705 3.99607C321.744 8.10479 323.877 9.5108 326.095 14.146C331.524 24.7718 336.952 35.3979 342.38 46.0237C342.828 46.7845 342.475 46.0294 342.901 47.0064C344.392 50.4299 347.043 54.8303 347.143 58.1695C341.092 59.4689 343.907 58.5377 339.691 61.3047C337.992 62.4196 336.864 62.9624 335.435 64.9289C334.688 66.3122 333.942 67.6959 333.196 69.0792C331.974 72.4724 334.106 76.216 335.78 78.023C338.313 80.7586 345.435 80.8173 345.435 80.8173L520.47 80.8131C535.723 80.8123 530.59 83.9595 538.3 90.4656C540.842 92.6109 554.352 91.6951 559.071 91.6951L596.355 91.5297L633.638 91.3644C637.185 91.3874 644.424 93.487 644.309 86.0477C644.277 83.9864 642.828 81.5837 641.61 80.3663C635.792 74.5508 606.597 67.6554 598.329 64.9243C597.319 64.5906 596.844 64.4837 595.681 64.2898L591.771 63.4747L587.861 62.6597C573.627 59.8277 577.601 58.6341 568.523 53.8945C565.403 52.266 559.396 50.3667 559.396 50.3667C559.396 50.3667 556.302 49.1947 554.721 48.771L552.81 48.2899L549.704 47.5083C530.459 42.5854 500.447 45.8211 480.777 46.9183C474.155 47.2876 442.66 51.4885 436.637 52.9485C424.801 55.8176 426.65 54.8428 418 49.4483L399.373 36.5518C399.242 36.4524 398.826 36.1648 398.691 36.0733L385.371 26.0455C384.498 25.3398 384.335 25.2722 383.609 24.7419C383.041 24.3265 382.459 23.7997 381.883 23.3148L353.594 1.9249C349.72 -0.00190053 335.944 0.498506 330.633 0.487923C324.958 0.476585 324.696 1.24383 321.705 3.99607Z" fill="black"/>
<path d="M351.126 89.6995C350.641 89.7536 350.182 89.7778 349.695 89.791C338.799 90.0854 324.714 89.9741 311.682 89.8711C305.44 89.8217 299.44 89.7743 294.148 89.7743H234.924C233.986 89.7743 233.099 89.7467 232.256 89.717L231.898 89.7042C227.896 89.5605 224.934 89.4542 222.496 92.2586C219.34 95.8877 220.995 100.255 223.941 101.796C227.363 103.584 240.31 103.383 248.216 103.261C249.865 103.235 251.296 103.213 252.374 103.213H489.271C490.463 103.213 492.376 103.275 494.715 103.351C504.473 103.668 521.653 104.227 524.885 101.521C529.706 97.4842 527.13 90.6172 522.214 89.6768L521.078 89.5653L519.941 89.4538C516.15 89.4538 507.735 89.4346 496.582 89.409H496.581H496.579H496.578C450.225 89.3027 356.595 89.0881 351.126 89.6995Z" fill="black"/>
<path d="M368.759 112.005C363.943 114.814 363.657 120.427 368.319 123.584C370.71 125.204 376.991 124.955 381.871 124.762C383.284 124.706 384.579 124.654 385.629 124.654H487.156C487.864 124.654 488.6 124.679 489.338 124.704C491.885 124.789 494.455 124.876 496.002 123.945C497.18 123.237 499.273 120.976 499.566 118.622C500.606 110.263 489.564 110.777 482.459 111.108L482.23 111.118C481.099 111.171 480.075 111.216 479.224 111.216L424.565 111.286L369.906 111.356C369.359 111.52 369.114 111.723 368.938 111.871C368.873 111.925 368.817 111.971 368.759 112.005Z" fill="black"/>
</svg>
