<?xml version="1.0" encoding="UTF-8"?> <svg xmlns="http://www.w3.org/2000/svg" width="117" height="26" viewBox="0 0 117 26" fill="none"><path d="M67.6511 7.91276C68.6961 3.7251 66.1477 0.259766 59.905 0.259766H46.3747L41.3054 20.7409L44.2479 25.7789H53.8732C60.18 25.7789 65.066 22.8439 66.3219 17.7419C66.9544 15.1269 66.221 13.2982 64.571 12.3839V12.3199C66.1357 11.3089 67.2414 9.72688 67.6511 7.91276ZM59.4008 17.5773C59.1442 18.6471 58.42 19.7443 55.4224 19.7443H49.2806L50.3531 15.3555H56.4674C59.4283 15.3463 59.6483 16.471 59.3642 17.5773H59.4008ZM60.6292 8.04991C60.4092 8.87282 59.7767 9.87859 57.1916 9.87859H51.6915L52.6082 6.31267H58.1083C60.7209 6.29439 60.8492 7.13558 60.6292 8.04991Z" fill="#AFB1B8"></path><path d="M76.1678 15.8949H88.4882L89.8907 9.8603H77.6529L78.6062 6.29439H90.7249L92.1274 0.259766H72.2352L65.9284 25.7698H88.4607L89.9365 19.7351H75.2603L76.1678 15.8949Z" fill="#AFB1B8"></path><path d="M93.8504 0.259766L92.4387 6.29439H99.7997L94.9687 25.7698H102.696L107.537 6.29439H115.42L116.933 0.259766H93.8504Z" fill="#AFB1B8"></path><path d="M8.08521 25.77H0.293341L3.66676 12.1464L4.44595 10.0891L2.3834 12.1464L0.0916691 14.4597L0 7.65699L8.08521 0.26001H14.3829L8.08521 25.77Z" fill="#AFB1B8"></path><path d="M36.2187 15.2L33.7345 11.0032L45.789 0.259766H34.5595L29.976 4.64858L14.429 18.8665L6.9671 25.7698H17.5915L25.5759 18.6654L28.2618 23.237C29.1785 24.3891 30.4711 25.788 35.9529 25.788H42.3697L36.2279 15.1909L36.2187 15.2Z" fill="#AFB1B8"></path><path d="M29.1145 3.24076V3.18589C28.4267 2.22883 27.5089 1.45938 26.4454 0.948165C25.3819 0.436945 24.2067 0.200325 23.0276 0.260018H14.7316L20.9192 10.7566L29.1145 3.24076Z" fill="#AFB1B8"></path></svg> 