<?xml version="1.0" encoding="UTF-8"?> <svg xmlns="http://www.w3.org/2000/svg" width="112" height="29" viewBox="0 0 112 29" fill="none"><path fill-rule="evenodd" clip-rule="evenodd" d="M63.5223 0.794341C60.1744 1.551 57.0476 3.68338 55.1175 6.52625C54.6219 7.25625 54.1275 8.09749 54.1731 8.13317C54.2348 8.18153 61.2363 6.89148 61.303 6.81941C61.3876 6.72807 64.5794 0.751428 64.5794 0.684415C64.5794 0.605118 64.1722 0.647409 63.5223 0.794341ZM69.0884 0.688768C69.0884 0.759436 72.3013 6.74797 72.3825 6.82882C72.4604 6.90625 78.5683 8.02441 78.9136 8.02441C79.0403 8.02441 79.0373 7.99961 78.8791 7.73288C77.9801 6.21684 77.3512 5.41104 76.2122 4.31612C74.4354 2.60798 72.2296 1.40244 69.8464 0.836867C69.4295 0.737901 69.0884 0.671276 69.0884 0.688768ZM7.17966 1.12482C7.02775 1.26437 6.90196 1.6296 6.55725 2.93232C5.92887 5.30695 2.76967 17.1822 1.64272 21.4057C1.11074 23.3993 0.675537 25.1161 0.675537 25.2209C0.675537 25.3257 0.756544 25.4876 0.855431 25.5805L1.0354 25.7496H11.8222C18.5789 25.7496 22.6612 25.7217 22.7487 25.6748C22.8255 25.6336 22.926 25.5025 22.9721 25.3832C23.112 25.0208 24.0758 21.361 24.0758 21.1922C24.0758 21.1054 23.9856 20.9496 23.8753 20.8459L23.6746 20.6575L16.9608 20.6368L10.2471 20.616L10.087 20.4125C9.99889 20.3006 9.92682 20.1645 9.92682 20.1102C9.92682 20.0559 10.1741 19.0898 10.4764 17.9633C10.7786 16.8368 11.358 14.6733 11.7638 13.1554C12.4768 10.4885 13.0098 8.49918 14.2415 3.90697C14.5622 2.71138 14.8246 1.64274 14.8246 1.53235C14.8246 1.42187 14.7387 1.24571 14.6337 1.14076L14.4429 0.949903H10.9064H7.37005L7.17966 1.12482ZM32.4202 1.11036C32.2195 1.20972 32.0522 1.36481 31.9801 1.51843C31.9162 1.65471 30.6163 6.45403 29.0914 12.1836C27.5665 17.9132 26.1641 23.1807 25.9748 23.8893C25.7855 24.5979 25.6307 25.2204 25.6307 25.2728C25.6307 25.3251 25.7166 25.4538 25.8215 25.5587L26.0123 25.7496H37.1286H48.2449L48.4393 25.5746C48.5973 25.4325 48.7292 25.051 49.1433 23.5376C49.4236 22.5136 49.6529 21.5622 49.6529 21.4235C49.6529 21.2691 49.5802 21.0869 49.4653 20.9534L49.2777 20.7352L42.2284 20.6963L35.1792 20.6575L35.0305 20.4739C34.9488 20.373 34.8818 20.1806 34.8816 20.0463C34.8815 19.9122 35.0982 18.9977 35.3633 18.0142C35.7621 16.5349 35.8819 16.1893 36.0573 16.0124L36.2693 15.7986H41.8378C46.6033 15.7986 47.4382 15.782 47.6288 15.6835C47.8947 15.5459 47.9282 15.4511 48.5296 13.1323C48.9214 11.6219 48.9586 11.4125 48.8725 11.2045C48.677 10.7326 48.8359 10.7454 43.1594 10.7454H37.9797L37.7524 10.5181C37.6144 10.3801 37.5252 10.2091 37.5252 10.0828C37.5252 9.96827 37.7247 9.11723 37.9685 8.19156C38.3352 6.79982 38.4485 6.47144 38.6234 6.29466L38.8348 6.08087H44.6191H50.4032L50.5594 5.90595C50.6452 5.8097 50.8145 5.55611 50.9357 5.34232C51.2982 4.70243 52.009 3.67553 52.5935 2.94709C53.0349 2.39707 53.1538 2.19121 53.1973 1.90154C53.2598 1.48484 53.1407 1.20256 52.838 1.04934C52.6874 0.973148 50.4986 0.951925 42.695 0.951147C32.7996 0.950059 32.7423 0.950913 32.4202 1.11036ZM86.9934 1.1015C86.8571 1.18461 86.709 1.32104 86.6643 1.40477C86.5923 1.53926 85.7559 4.56809 84.2486 10.1532L83.7685 11.9322L83.8495 13.224C84.1073 17.3349 83.0228 21.1769 80.6764 24.4661C80.3746 24.889 80.1277 25.2587 80.1277 25.2875C80.1277 25.3163 80.2003 25.4321 80.2889 25.5447L80.45 25.7496H84.0119C87.2924 25.7496 87.5861 25.7388 87.731 25.6135C87.8878 25.4779 88.0183 24.997 90.4801 15.4876C90.8287 14.1408 91.1582 12.9903 91.2122 12.9309C91.2663 12.8717 91.3588 12.8417 91.4178 12.8643C91.5429 12.9123 91.3174 12.5257 95.4755 19.8231C98.0592 24.3574 98.7666 25.5426 98.944 25.6343C99.1289 25.73 99.6507 25.7496 102.016 25.7496H104.865L105.114 25.4969C105.349 25.2573 105.446 24.928 106.982 19.1415C107.874 15.785 108.735 12.549 108.897 11.9504C110.269 6.87531 111.613 1.70493 111.613 1.50467C111.613 1.36411 111.547 1.19471 111.457 1.10461C111.304 0.95208 111.217 0.948815 107.79 0.968561L104.279 0.988774L102.543 7.36361C101.589 10.8698 100.77 13.8715 100.725 14.0339C100.627 14.3904 100.443 14.4854 100.269 14.2701C100.2 14.1848 99.2446 12.4036 98.1466 10.3117C93.0253 0.555596 93.396 1.23389 93.1056 1.08611C92.866 0.96413 92.5509 0.950136 90.0398 0.950292C87.4056 0.950447 87.2266 0.959387 86.9934 1.1015ZM61.5294 12.8583C60.8571 14.8764 60.3149 16.5349 60.3247 16.5438C60.502 16.7056 66.5559 21.0073 66.6064 21.0073C66.6953 21.0073 72.8208 16.5671 72.8181 16.5047C72.817 16.4798 72.2803 14.8327 71.6255 12.8444L70.4349 9.22941L66.5934 9.20928L62.7519 9.18914L61.5294 12.8583ZM52.8038 12.4056C52.776 12.4973 52.7335 13.202 52.7093 13.9717C52.6593 15.5664 52.7687 16.5689 53.1505 18.0142C53.7431 20.2568 55.0819 22.6334 56.562 24.0702C56.8709 24.3701 56.8746 24.3713 56.9167 24.1868C56.94 24.0843 57.1513 22.601 57.3861 20.8907C57.6209 19.1804 57.8259 17.7042 57.8417 17.6104C57.8644 17.4753 57.3484 16.8986 55.3623 14.8393C53.1994 12.5967 52.8473 12.2617 52.8038 12.4056ZM78.0941 15.0586C76.0939 17.1368 75.8162 17.4551 75.838 17.6437C75.9389 18.5124 76.7111 23.9136 76.7383 23.941C76.8216 24.0242 77.6653 22.9869 78.3138 22.0043C79.5686 20.1027 80.3205 17.8755 80.5182 15.474C80.5973 14.5124 80.5448 12.7934 80.4342 12.725C80.4017 12.7049 79.3486 13.755 78.0941 15.0586ZM66.5229 24.1028C66.3733 24.1742 64.9739 24.8564 63.4132 25.6189L60.5757 27.0051L61.0876 27.2237C64.6826 28.7591 68.8701 28.7301 72.3147 27.1461L72.8589 26.8959L69.9682 25.4744C68.3784 24.6927 67.014 24.035 66.9363 24.013C66.8586 23.991 66.6726 24.0314 66.5229 24.1028Z" fill="#AFB1B8"></path></svg> 