<?xml version="1.0" encoding="UTF-8"?> <svg xmlns="http://www.w3.org/2000/svg" width="181" height="26" viewBox="0 0 181 26" fill="none"><g clip-path="url(#clip0_1_5939)"><path d="M155.418 6.37583C160.379 7.8471 162.916 6.60361 164.56 5.79711C164.964 5.59971 165.319 5.42508 165.641 5.31372L165.971 6.27797C165.681 6.37752 165.364 6.53275 165.005 6.70906C163.222 7.58389 160.468 8.93368 155.132 7.3519L155.418 6.37583ZM152.917 9.59423C157.676 10.2236 159.808 9.57905 161.647 9.02226C163.703 8.40052 165.417 7.88253 169.632 9.13531L169.346 10.1114C165.422 8.94465 163.837 9.42382 161.938 9.99833C160.005 10.583 157.765 11.2604 152.786 10.6015L152.917 9.59423ZM156.494 22.7884C161.057 20.0416 163.856 20.8143 166.486 21.5399C166.94 21.6703 167.398 21.789 167.858 21.8959L167.639 22.888C167.162 22.7772 166.688 22.6546 166.218 22.5201H166.216C163.789 21.8503 161.206 21.1366 157.015 23.6599L156.494 22.7884Z" fill="#AFB1B8"></path><path d="M152.532 12.7226C157.341 14.4562 159.693 13.1908 161.8 12.0578C164.213 10.7586 166.337 9.61723 170.874 12.4644L170.337 13.3249C166.3 10.7915 164.419 11.8039 162.281 12.9537C159.987 14.1879 157.426 15.5647 152.19 13.6784L152.532 12.7226Z" fill="#AFB1B8"></path><path d="M152.555 15.9297C154.16 16.8189 156.031 16.7843 157.942 16.322C159.915 15.8445 161.946 14.9064 163.781 14.0383C165.793 13.0859 167.505 13.2529 168.876 13.8105C170.076 14.2998 170.994 15.0819 171.62 15.664L171.134 16.6021C170.565 16.063 169.667 15.2312 168.495 14.7545C167.351 14.2889 165.916 14.153 164.214 14.9578C162.335 15.8462 160.255 16.8079 158.181 17.3099C156.044 17.827 153.928 17.8531 152.065 16.8214L152.555 15.9297Z" fill="#AFB1B8"></path><path d="M161.315 4.07349C162.697 4.07208 164.065 4.34411 165.341 4.87389C166.617 5.40367 167.775 6.18073 168.749 7.16029C169.727 8.13848 170.503 9.30004 171.031 10.5784C171.56 11.8568 171.831 13.2269 171.829 14.6103C171.832 15.9938 171.561 17.3641 171.032 18.6427C170.503 19.9213 169.728 21.083 168.749 22.0611C167.775 23.0405 166.617 23.8174 165.341 24.347C164.065 24.8767 162.697 25.1486 161.315 25.147C159.934 25.1484 158.566 24.8765 157.29 24.3469C156.014 23.8173 154.855 23.0404 153.881 22.0611C152.903 21.0826 152.127 19.9209 151.599 18.6424C151.07 17.3638 150.799 15.9937 150.801 14.6103C150.801 11.7006 151.978 9.06686 153.881 7.16029C154.855 6.18071 156.013 5.40364 157.289 4.87386C158.565 4.34408 159.934 4.07206 161.315 4.07349ZM167.455 8.45693C166.65 7.64807 165.694 7.00645 164.64 6.56904C163.586 6.13164 162.456 5.9071 161.315 5.90836C160.174 5.90705 159.044 6.13157 157.991 6.56898C156.937 7.00638 155.98 7.64803 155.175 8.45693C154.367 9.26479 153.727 10.2242 153.29 11.2801C152.854 12.336 152.63 13.4677 152.632 14.6103C152.63 15.7529 152.854 16.8846 153.29 17.9405C153.727 18.9964 154.367 19.9558 155.175 20.7636C155.98 21.5727 156.937 22.2145 157.991 22.652C159.044 23.0896 160.174 23.3142 161.315 23.313C162.456 23.3142 163.586 23.0895 164.64 22.652C165.694 22.2144 166.651 21.5726 167.455 20.7636C168.263 19.9557 168.904 18.9963 169.34 17.9404C169.777 16.8845 170 15.7528 169.999 14.6103C169.999 12.2076 169.027 10.032 167.455 8.45693Z" fill="#AFB1B8"></path><path d="M152.927 18.6209C154.266 19.4949 155.842 19.7193 157.41 19.5759C159.584 19.3784 161.742 18.4825 163.276 17.6144C164.548 16.8948 165.883 16.7565 167.1 16.9294C168.752 17.1648 170.196 17.9839 170.944 18.6926L170.248 19.4333C169.615 18.8343 168.384 18.14 166.961 17.9375C165.939 17.7916 164.823 17.9038 163.772 18.4986C162.142 19.4215 159.839 20.3748 157.502 20.5873C155.725 20.7493 153.927 20.4861 152.375 19.4738L152.927 18.6209Z" fill="#AFB1B8"></path><path d="M28.6168 21.7002V10.535L19.6871 21.7028H17.0896L28.5535 7.36296H30.6508V21.7002H28.6168ZM19.5867 7.36296L8.19451 21.7002H5.59955L16.9816 7.36211H19.5867V7.36296ZM51.7429 7.36211H66.205C67.4232 7.36211 68.5308 7.86069 69.3331 8.66466C69.7451 9.07616 70.072 9.56483 70.295 10.1027C70.518 10.6406 70.6328 11.2172 70.6328 11.7995C70.6328 12.3818 70.518 12.9584 70.295 13.4963C70.072 14.0342 69.7451 14.5229 69.3331 14.9344C68.7576 15.5126 68.0336 15.9207 67.241 16.1138L71.8091 21.7002L69.1754 21.7019L63.0634 14.1988H66.205C66.8622 14.1988 67.4603 13.9288 67.8948 13.4935C68.1176 13.2712 68.2944 13.0072 68.4151 12.7166C68.5359 12.4259 68.5981 12.1143 68.5983 11.7995C68.5983 11.1415 68.3284 10.5417 67.8948 10.1064C67.6735 9.88313 67.4104 9.7058 67.1204 9.58462C66.8304 9.46344 66.5193 9.4008 66.205 9.40029H53.4883L51.742 7.36211H51.7429ZM93.4302 9.40029H79.3924C78.7125 9.40029 78.1008 9.64494 77.663 10.0398C77.253 10.4084 76.9982 10.9087 76.9982 11.4511C76.9982 11.9919 77.2522 12.4896 77.6605 12.8574C78.1403 13.2789 78.758 13.5098 79.3966 13.5062C82.3653 13.5197 86.8466 13.5205 89.8153 13.5205C90.9531 13.5156 92.0527 13.9304 92.9038 14.6856C93.7305 15.4296 94.2435 16.4647 94.2435 17.6104C94.2435 18.756 93.7305 19.7911 92.9038 20.5352C92.0529 21.2905 90.9531 21.705 89.8153 21.6994H76.9982L75.2131 19.6604H89.8153C90.4953 19.6604 91.1069 19.4157 91.5447 19.0217C91.9547 18.6531 92.2095 18.1528 92.2095 17.6104C92.2095 17.0679 91.9547 16.5677 91.5447 16.199C91.1069 15.8042 90.4944 15.5595 89.8153 15.5595C86.8458 15.5595 82.3577 15.5503 79.3882 15.5368C78.1903 15.5317 77.0969 15.0863 76.3023 14.3709C75.4763 13.6285 74.9643 12.5959 74.9643 11.452C74.9643 10.3055 75.4772 9.27038 76.3039 8.52631C77.1546 7.77122 78.2541 7.35667 79.3916 7.36211H91.7151L93.4302 9.40029ZM108.52 7.36211H118.741C119.681 7.36267 120.611 7.54892 121.478 7.91014C122.345 8.27136 123.132 8.80043 123.795 9.46694C124.46 10.1315 124.988 10.9207 125.349 11.7896C125.709 12.6584 125.894 13.5897 125.894 14.5303C125.894 15.4709 125.709 16.4023 125.349 17.2711C124.988 18.1399 124.46 18.9292 123.795 19.5937C123.133 20.2603 122.345 20.7894 121.478 21.1506C120.611 21.5119 119.681 21.6981 118.741 21.6985H106.905L108.52 19.6604H118.741C119.413 19.6599 120.079 19.5264 120.699 19.2677C121.32 19.0089 121.883 18.63 122.356 18.1528C122.833 17.6775 123.211 17.1129 123.469 16.4914C123.727 15.8698 123.86 15.2034 123.86 14.5303C123.86 13.8574 123.727 13.1912 123.469 12.5698C123.211 11.9483 122.833 11.3839 122.356 10.9087C121.883 10.4315 121.32 10.0526 120.699 9.79384C120.079 9.53511 119.413 9.40165 118.741 9.40114H106.835L108.52 7.36211Z" fill="#AFB1B8"></path><path fill-rule="evenodd" clip-rule="evenodd" d="M46.3067 19.6613L47.8556 21.7003H33.5402L34.7103 20.0519L44.6616 7.36304H46.1337C49.6558 11.857 53.8444 17.208 57.3673 21.7012H54.7893C51.532 17.5489 48.6536 13.8732 45.3973 9.71926L37.5997 19.6613H46.3067ZM136.839 19.6613L135.29 21.7003H149.605L148.435 20.0519L138.485 7.36304H137.012C133.49 11.857 129.302 17.208 125.778 21.7012H128.357C131.614 17.5489 134.493 13.8732 137.748 9.71926L145.546 19.6613H136.839Z" fill="#AFB1B8"></path><path d="M172.925 5.59815C173.268 5.58945 173.595 5.44685 173.835 5.20075C174.075 4.95466 174.209 4.62455 174.209 4.28084C174.209 3.93713 174.075 3.60702 173.835 3.36093C173.595 3.11483 173.268 2.97223 172.925 2.96353C172.752 2.96353 172.581 2.99761 172.421 3.06382C172.261 3.13003 172.116 3.22707 171.994 3.34939C171.872 3.47171 171.775 3.6169 171.71 3.77666C171.644 3.93642 171.61 4.1076 171.61 4.28042C171.61 4.45334 171.643 4.62466 171.709 4.78457C171.775 4.94447 171.872 5.08981 171.994 5.21224C172.116 5.33467 172.261 5.43178 172.421 5.498C172.58 5.56423 172.752 5.59826 172.925 5.59815ZM175.156 6.51769C174.863 6.81148 174.516 7.0445 174.133 7.20332C173.75 7.36215 173.339 7.44366 172.925 7.44314C172.51 7.4427 172.099 7.36056 171.716 7.20142C171.333 7.04228 170.985 6.80926 170.692 6.51565C170.399 6.22204 170.167 5.8736 170.009 5.49023C169.85 5.10685 169.769 4.69604 169.769 4.28126C169.769 3.86648 169.85 3.45567 170.009 3.0723C170.167 2.68892 170.399 2.34048 170.692 2.04687C170.985 1.75327 171.333 1.52024 171.716 1.3611C172.099 1.20196 172.51 1.11983 172.925 1.11938C173.339 1.11983 173.75 1.20196 174.133 1.3611C174.516 1.52024 174.864 1.75327 175.157 2.04687C175.45 2.34048 175.682 2.68892 175.841 3.0723C175.999 3.45567 176.08 3.86648 176.08 4.28126C176.08 4.69632 175.999 5.10739 175.84 5.49099C175.682 5.87459 175.449 6.22318 175.156 6.51685V6.51769Z" fill="#AFB1B8"></path><path d="M172.925 5.59815C173.268 5.58945 173.595 5.44685 173.835 5.20075C174.075 4.95466 174.209 4.62455 174.209 4.28084C174.209 3.93713 174.075 3.60702 173.835 3.36093C173.595 3.11483 173.268 2.97223 172.925 2.96353C172.752 2.96353 172.581 2.99761 172.421 3.06382C172.261 3.13003 172.116 3.22707 171.994 3.34939C171.872 3.47171 171.775 3.6169 171.71 3.77666C171.644 3.93642 171.61 4.1076 171.61 4.28042C171.61 4.45334 171.643 4.62466 171.709 4.78457C171.775 4.94447 171.872 5.08981 171.994 5.21224C172.116 5.33467 172.261 5.43178 172.421 5.498C172.58 5.56423 172.752 5.59826 172.925 5.59815ZM175.156 6.51769C174.863 6.81148 174.516 7.0445 174.133 7.20332C173.75 7.36215 173.339 7.44366 172.925 7.44314C172.51 7.4427 172.099 7.36056 171.716 7.20142C171.333 7.04228 170.985 6.80926 170.692 6.51565C170.399 6.22204 170.167 5.8736 170.009 5.49023C169.85 5.10685 169.769 4.69604 169.769 4.28126C169.769 3.86648 169.85 3.45567 170.009 3.0723C170.167 2.68892 170.399 2.34048 170.692 2.04687C170.985 1.75327 171.333 1.52024 171.716 1.3611C172.099 1.20196 172.51 1.11983 172.925 1.11938C173.339 1.11983 173.75 1.20196 174.133 1.3611C174.516 1.52024 174.864 1.75327 175.157 2.04687C175.45 2.34048 175.682 2.68892 175.841 3.0723C175.999 3.45567 176.08 3.86648 176.08 4.28126C176.08 4.69632 175.999 5.10739 175.84 5.49099C175.682 5.87459 175.449 6.22318 175.156 6.51685V6.51769Z" fill="#AFB1B8"></path></g><defs><clipPath id="clip0_1_5939"><rect width="179.69" height="25.3085" fill="white" transform="translate(0.332672 0.365234)"></rect></clipPath></defs></svg> 