<?xml version="1.0" encoding="UTF-8"?> <svg xmlns="http://www.w3.org/2000/svg" width="121" height="23" viewBox="0 0 121 23" fill="none"><path fill-rule="evenodd" clip-rule="evenodd" d="M30.0643 0.884468C29.3009 1.00492 28.7463 1.12978 28.674 1.19747C28.6334 1.23535 28.5388 1.26633 28.4636 1.26633C28.1106 1.26633 25.862 2.43316 25.445 2.83276C25.3869 2.88838 25.1832 3.05538 24.9925 3.20387C23.7655 4.15869 22.5398 5.94773 21.9951 7.57915C21.5213 8.99763 21.4722 9.31381 21.4712 10.9486C21.4705 12.1278 21.501 12.5948 21.6103 13.0787C21.6873 13.4195 21.7823 13.7588 21.8214 13.8328C21.8605 13.9068 21.8937 14.0287 21.8952 14.1039C21.8966 14.179 21.9651 14.3799 22.0474 14.5504C22.1298 14.7208 22.1982 14.9212 22.1997 14.9957C22.2012 15.0702 22.2334 15.1313 22.2714 15.1313C22.3094 15.1313 22.3645 15.2268 22.3938 15.3435C22.423 15.4602 22.4704 15.5735 22.499 15.5953C22.5277 15.6169 22.6308 15.7916 22.7282 15.9833C22.9193 16.3594 23.0697 16.6187 23.1325 16.6804C23.1542 16.7017 23.2588 16.8496 23.3649 17.0091C23.471 17.1686 23.584 17.2993 23.616 17.2996C23.648 17.2999 23.6741 17.3359 23.6741 17.3797C23.6741 17.4618 25.0289 18.8493 25.1091 18.8493C25.1339 18.8493 25.2656 18.9537 25.4017 19.0812C25.5378 19.2089 25.6899 19.3135 25.7396 19.3136C25.7893 19.3139 25.8416 19.3419 25.8558 19.376C25.8957 19.4719 27.0738 20.166 27.1965 20.166C27.2564 20.166 27.3242 20.1964 27.3471 20.2334C27.37 20.2705 27.6074 20.3779 27.8745 20.472C28.1417 20.5662 28.4139 20.671 28.4794 20.7049C28.545 20.7388 28.7527 20.7926 28.9412 20.8244C29.1296 20.8563 29.3374 20.9095 29.403 20.9427C29.5839 21.0345 30.9921 21.1749 31.6909 21.171C32.5479 21.1661 34.2192 20.9133 34.7118 20.714C34.797 20.6795 35.163 20.5353 35.5251 20.3935C35.8872 20.2517 36.3442 20.0379 36.5406 19.9185C36.737 19.799 36.9345 19.7013 36.9795 19.7013C37.0245 19.7013 37.0729 19.6752 37.0872 19.6432C37.1014 19.6112 37.3134 19.4486 37.5584 19.2818C37.8034 19.1149 38.0037 18.9493 38.0037 18.9139C38.0037 18.8783 38.0405 18.8493 38.0854 18.8493C38.2583 18.8493 39.7925 17.205 39.9714 16.8278C40.0098 16.7467 40.0709 16.6804 40.107 16.6804C40.1431 16.6804 40.1726 16.6462 40.1726 16.6044C40.1726 16.5625 40.3048 16.3098 40.4664 16.0428C40.7326 15.6029 41.0749 14.8431 41.3306 14.1243C41.509 13.623 41.6704 12.7996 41.8016 11.7215C41.8766 11.1056 41.8702 10.8183 41.7634 9.97871C41.693 9.42574 41.5997 8.83396 41.5562 8.66356C41.3976 8.04304 41.2321 7.4965 41.1341 7.26932C40.4747 5.7413 39.6957 4.56131 38.7783 3.70083C38.0637 3.03059 37.8065 2.81394 37.6746 2.77134C37.6 2.74725 37.539 2.70302 37.539 2.67297C37.539 2.64292 37.4083 2.54973 37.2485 2.46592C37.0888 2.38211 36.9406 2.2904 36.9193 2.26213C36.898 2.23386 36.5669 2.05524 36.1835 1.86508C35.03 1.29313 34.4332 1.09841 33.1626 0.879588C32.6869 0.797638 30.5938 0.800969 30.0643 0.884468ZM31.6218 3.3807C31.5478 3.55978 31.4372 3.79874 31.3761 3.91183C31.315 4.02492 31.2649 4.15319 31.2649 4.19695C31.2649 4.24064 31.1581 4.51406 31.0277 4.80461C30.8972 5.09515 30.7621 5.40258 30.7277 5.48779C30.6932 5.57299 30.5735 5.84092 30.4615 6.0832C30.3495 6.32549 30.258 6.54826 30.258 6.57824C30.258 6.60814 30.1906 6.77591 30.1083 6.95096C30.026 7.1261 29.8972 7.41749 29.8223 7.59851C29.7473 7.77953 29.6491 7.93057 29.6041 7.93398C29.559 7.93747 29.1038 7.97046 28.5926 8.00733C27.2481 8.10431 25.0832 8.30113 24.7004 8.36124L24.3712 8.41283L24.6314 8.65442C24.9344 8.93551 25.1184 9.0912 25.6492 9.51575C25.8622 9.68608 26.1291 9.91256 26.2422 10.0191C26.571 10.3287 27.4057 11.0559 27.5527 11.1609C27.6267 11.2138 27.8475 11.4061 28.0431 11.5884C28.3705 11.8932 28.3933 11.9383 28.3278 12.1506C28.245 12.4194 28.0966 13.0228 28.0043 13.4659C27.8715 14.1041 27.7287 14.7091 27.6843 14.8215C27.659 14.8854 27.5991 15.1293 27.5511 15.3637C27.3751 16.2217 27.257 16.7225 27.1973 16.8636C27.1444 16.9889 27.161 17.0003 27.3222 16.9491C27.4245 16.9167 27.6476 16.8001 27.818 16.69C28.2549 16.4079 28.4205 16.3074 28.5539 16.2437C28.6178 16.2131 28.9716 16.0026 29.3402 15.7759C29.7089 15.5492 30.0458 15.3637 30.089 15.3637C30.1323 15.3637 30.1792 15.3357 30.1934 15.3015C30.2182 15.2419 30.8181 14.8661 31.4461 14.517C31.7345 14.3566 31.7525 14.3556 32.0464 14.4852C32.213 14.5587 32.3493 14.647 32.3493 14.6814C32.3493 14.7159 32.3836 14.744 32.4254 14.744C32.4673 14.744 32.7293 14.8834 33.0077 15.0538C33.2861 15.2242 33.5481 15.3637 33.59 15.3637C33.6319 15.3637 33.6661 15.3951 33.6661 15.4335C33.6661 15.4719 33.7619 15.5427 33.8791 15.5908C34.101 15.6819 34.1867 15.7314 34.7296 16.0817C34.9099 16.198 35.0928 16.2932 35.1363 16.2932C35.1797 16.2932 35.2153 16.328 35.2153 16.3706C35.2153 16.4132 35.2651 16.4481 35.326 16.4481C35.3868 16.4481 35.4843 16.4917 35.5427 16.5449C35.6482 16.6412 36.2613 16.9903 36.3249 16.9903C36.3433 16.9903 36.309 16.755 36.2489 16.4674C36.1888 16.1799 36.107 15.7877 36.067 15.596C36.027 15.4043 35.961 15.1255 35.9202 14.9764C35.8794 14.8273 35.7929 14.4787 35.7279 14.2018C35.6628 13.9249 35.5337 13.402 35.4408 13.0399C35.1518 11.9134 35.1542 11.8541 35.4985 11.5985C35.6622 11.477 35.8661 11.3071 35.9515 11.2211C36.0866 11.085 36.2935 10.9072 37.2151 10.1353C37.3169 10.0501 37.5139 9.87577 37.6529 9.74796C37.792 9.62016 38.0733 9.37617 38.2781 9.20576C38.4829 9.03535 38.769 8.78873 38.9138 8.65767L39.1772 8.41949L38.6485 8.33119C38.1471 8.24738 36.9687 8.14211 34.9829 8.00369C34.493 7.96953 34.0496 7.93847 33.9976 7.93468C33.9177 7.92879 33.5112 7.16746 33.5112 7.02377C33.5112 6.99775 33.4368 6.8158 33.3457 6.61944C33.2547 6.42301 33.1524 6.19265 33.1183 6.10745C33.0842 6.02224 32.9495 5.71481 32.819 5.42427C32.6885 5.13373 32.5817 4.88346 32.5817 4.86812C32.5817 4.85279 32.4743 4.60252 32.3431 4.31198C32.2118 4.02143 32.0549 3.67388 31.9945 3.53964C31.9341 3.40541 31.8846 3.25932 31.8846 3.21502C31.8846 2.99992 31.7419 3.08985 31.6218 3.3807ZM50.768 3.94196C50.7449 3.96512 50.4341 4.03158 50.0774 4.0896C49.3511 4.2078 48.8309 4.33242 48.6322 4.43575C48.5591 4.47379 48.2556 4.6215 47.9578 4.76394C47.2943 5.08136 47.3277 5.05697 46.6511 5.72016C46.0547 6.30489 45.989 6.39133 45.7391 6.92075C45.6485 7.11246 45.5447 7.32904 45.5083 7.402C45.3671 7.68465 45.2672 8.68672 45.3138 9.352C45.374 10.2105 45.5512 10.5955 46.1644 11.1991C46.4139 11.4448 46.6467 11.6457 46.6817 11.6457C46.7167 11.6457 46.793 11.6893 46.8513 11.7425C47.005 11.883 47.449 12.1104 47.5698 12.1104C47.6268 12.1104 47.7721 12.1593 47.8927 12.219C48.1036 12.3234 48.5405 12.4645 49.1964 12.6399C51.2292 13.1834 51.5916 13.3385 51.6834 13.704C51.7472 13.958 51.563 14.2218 51.1968 14.4014C50.9432 14.5257 50.7329 14.545 49.7386 14.5354C48.2235 14.5207 47.4071 14.3197 45.8728 13.5836C45.6211 13.4628 45.3771 13.3799 45.3306 13.3993C45.2841 13.4188 45.1145 13.7031 44.9536 14.0312C44.7927 14.3593 44.6315 14.6801 44.5953 14.744C44.5592 14.8079 44.4529 15.009 44.3592 15.1908C44.2654 15.3727 44.0641 15.7609 43.9118 16.0533C43.7594 16.3457 43.6551 16.638 43.6799 16.7027C43.776 16.9531 45.4051 17.5961 46.3692 17.7641C46.5609 17.7975 46.9269 17.8711 47.1825 17.9277C47.4938 17.9964 48.2355 18.0306 49.4288 18.0309C50.8938 18.0314 51.2881 18.0078 51.6483 17.8982C51.8891 17.8248 52.1746 17.7648 52.2827 17.7648C52.3908 17.7648 52.4991 17.7327 52.5234 17.6934C52.5477 17.654 52.6741 17.5985 52.8043 17.5699C52.9345 17.5413 53.1345 17.4691 53.2488 17.4095C53.3631 17.3498 53.5002 17.3009 53.5534 17.3006C53.6067 17.3003 53.6502 17.2652 53.6502 17.2226C53.6502 17.18 53.6986 17.1452 53.7579 17.1452C53.8171 17.1452 54.0738 16.9918 54.3284 16.8045C55.1278 16.2159 55.6011 15.6736 55.8901 15.0149C55.9835 14.802 56.0927 14.5581 56.1328 14.4729C56.2654 14.1915 56.3494 13.0395 56.2764 12.5062C56.2077 12.0049 55.9463 11.373 55.68 11.0647C55.4346 10.7806 54.8057 10.3118 54.4388 10.1394C53.9759 9.92193 52.0666 9.32195 51.8375 9.32195C51.7724 9.32195 51.5524 9.26935 51.3486 9.20506C50.0273 8.78834 49.9323 8.72769 49.9323 8.30175C49.9323 8.06241 49.979 7.97743 50.2054 7.8047C50.5707 7.52601 50.9803 7.43717 51.9074 7.43546C52.8042 7.43376 53.6058 7.55529 54.2001 7.78294C54.4302 7.87109 54.6969 7.96117 54.7927 7.98317C54.8885 8.00524 54.967 8.05024 54.967 8.08324C54.967 8.11624 55.0541 8.16519 55.1607 8.19192C55.2672 8.21864 55.3543 8.27472 55.3543 8.31647C55.3543 8.50028 55.5752 8.36713 55.7101 8.10199C55.7913 7.94227 55.8812 7.7937 55.9098 7.77202C55.9383 7.75025 55.9857 7.63701 56.0149 7.52028C56.0442 7.40355 56.0993 7.30804 56.1372 7.30804C56.1753 7.30804 56.2063 7.26986 56.2063 7.22315C56.2063 7.17644 56.4169 6.71541 56.6742 6.19854C56.9315 5.68174 57.1319 5.19461 57.1196 5.11607C57.1072 5.03752 57.01 4.92637 56.9035 4.86913C56.5669 4.68827 56.1482 4.51956 56.0359 4.51956C55.9762 4.51956 55.8943 4.48835 55.8539 4.45024C55.7682 4.36961 55.2036 4.22964 54.541 4.12484C54.2854 4.0844 53.9276 4.01725 53.746 3.97565C53.4028 3.89696 50.842 3.86799 50.768 3.94196ZM2.77206 4.42274C2.72226 4.58254 2.64859 4.90492 2.60832 5.13923C2.51908 5.65935 2.34186 6.59419 2.17517 7.42423C2.1067 7.76505 2.02219 8.22329 1.98734 8.44249C1.95248 8.66177 1.8995 8.91808 1.86968 9.01212C1.83986 9.10615 1.78517 9.36246 1.74822 9.58174C1.71128 9.80095 1.62592 10.2592 1.55845 10.6C1.49106 10.9408 1.38758 11.4811 1.32856 11.8006C1.26946 12.1201 1.16721 12.643 1.1013 12.9625C1.03546 13.282 0.946846 13.7525 0.904399 14.0081C0.861952 14.2638 0.791698 14.5947 0.748167 14.7435C0.704713 14.8923 0.669082 15.143 0.669082 15.3005C0.669082 15.458 0.637634 15.6063 0.599215 15.63C0.560873 15.6538 0.504562 15.8911 0.474198 16.1574C0.443835 16.4238 0.39248 16.694 0.360103 16.7579C0.327725 16.8218 0.276836 17.075 0.247015 17.3206L0.192871 17.7672L2.46424 17.7466L4.73562 17.7261L4.75638 17.4937C4.77613 17.2724 4.92663 16.5044 5.09781 15.7509C5.14134 15.5592 5.2078 15.2281 5.24544 15.0151C5.28309 14.8021 5.36543 14.349 5.42848 14.0081C5.87208 11.6097 5.83993 11.6808 6.11367 12.4917C6.22908 12.8335 6.3235 13.1839 6.3235 13.2702C6.3235 13.3566 6.35836 13.4272 6.40096 13.4272C6.44356 13.4272 6.47811 13.4882 6.4778 13.5628C6.47718 13.6851 6.94588 15.2554 7.09614 15.6348C7.12992 15.72 7.21822 15.9988 7.29234 16.2544C7.36655 16.51 7.4533 16.7726 7.48514 16.8379C7.51705 16.9032 7.56941 17.0763 7.60156 17.2226C7.71433 17.736 7.76244 17.7648 8.50673 17.7648H9.18092L9.49586 17.3195C9.66906 17.0745 9.85403 16.8088 9.90678 16.729C9.95953 16.6493 10.0392 16.5447 10.0839 16.4966C10.1285 16.4486 10.2839 16.2351 10.4292 16.022C10.5745 15.809 10.7225 15.5999 10.7579 15.5573C10.7934 15.5147 11.1332 15.0441 11.5132 14.5116C11.8931 13.9791 12.2409 13.5006 12.2861 13.4483C12.3313 13.3959 12.4795 13.1868 12.6156 12.9835C12.7517 12.7802 12.8992 12.5746 12.9434 12.5266C13.0276 12.4349 13.1218 12.3014 13.3738 11.9168C13.5255 11.6853 13.5261 11.6851 13.5232 11.8781C13.5217 11.9846 13.4853 12.2286 13.4426 12.4203C13.3998 12.612 13.3165 13.0302 13.2575 13.3498C13.1983 13.6693 13.0943 14.2095 13.0262 14.5504C12.9582 14.8912 12.8701 15.3443 12.8306 15.5573C12.7911 15.7703 12.7041 16.2234 12.6372 16.5643C12.5702 16.9051 12.4946 17.3147 12.4689 17.4744L12.4223 17.7648H14.6661H16.9099L17.0387 17.1452C17.1542 16.5899 17.32 15.7368 17.4378 15.0926C17.4612 14.9647 17.5339 14.5988 17.5995 14.2792C17.6651 13.9597 17.7668 13.4543 17.8255 13.1561C17.8843 12.8579 17.953 12.5093 17.9783 12.3815C18.0036 12.2537 18.0747 11.8877 18.1363 11.5682C18.1979 11.2487 18.3237 10.6039 18.4158 10.1353C18.508 9.66663 18.6288 9.03923 18.6843 8.74101C18.7398 8.4428 18.8405 7.91996 18.908 7.57915C19.0564 6.82974 19.1394 6.3918 19.2971 5.52706C19.3631 5.16525 19.451 4.74698 19.4925 4.59756C19.5339 4.44815 19.5681 4.28239 19.5683 4.2291C19.5687 4.15381 19.0519 4.13227 17.2413 4.13227H14.9139L14.7264 4.34528C14.6233 4.4624 14.5378 4.6019 14.5365 4.65511C14.5351 4.70841 14.5061 4.75194 14.4721 4.75194C14.4381 4.75194 14.3248 4.89043 14.2204 5.05968C14.116 5.22892 14.0045 5.36835 13.9725 5.36951C13.9405 5.37067 13.9144 5.42388 13.9144 5.48779C13.9144 5.55169 13.8877 5.60397 13.8552 5.60397C13.8227 5.60397 13.7099 5.7434 13.6045 5.9138C13.4992 6.08421 13.3864 6.22363 13.3539 6.22363C13.3214 6.22363 13.2947 6.2643 13.2947 6.31395C13.2947 6.3636 13.2415 6.45949 13.1764 6.52696C13.1114 6.59442 12.7991 7.01564 12.4826 7.46296C12.1661 7.91028 11.8765 8.31221 11.839 8.3562C11.7627 8.4459 11.381 8.97951 11.2033 9.2448C11.1394 9.3403 11.051 9.45765 11.0068 9.50575C10.9626 9.55378 10.8516 9.71505 10.7602 9.86415C10.6687 10.0133 10.5306 10.205 10.4532 10.2902C10.3759 10.3754 10.1906 10.6272 10.0415 10.8497C9.76759 11.2585 9.57673 11.371 9.57673 11.1236C9.57673 10.9837 9.14064 9.52837 9.03615 9.31939C9.00346 9.2541 8.95048 9.08098 8.91834 8.93466C8.88619 8.78834 8.83438 8.61522 8.80324 8.54992C8.71315 8.36131 8.49232 7.64514 8.49232 7.54173C8.49232 7.48999 8.44461 7.33779 8.38636 7.20355C8.32803 7.06932 8.21913 6.75035 8.1443 6.49474C8.06948 6.23913 7.97777 5.9695 7.94051 5.89552C7.90318 5.82155 7.87266 5.70482 7.87266 5.63612C7.87266 5.56741 7.8258 5.40134 7.76848 5.26711C7.71116 5.13287 7.60094 4.82266 7.52356 4.57766L7.38274 4.13227H5.12275H2.86269L2.77206 4.42274ZM60.6581 4.22863C60.5909 4.40934 60.3876 5.42892 60.16 6.72711C60.1152 6.98272 60.0606 7.27024 60.0386 7.36614L59.9988 7.54042H61.9303C63.3626 7.54042 63.8698 7.56443 63.8927 7.63329C63.9097 7.68433 63.8761 7.97194 63.818 8.27232C63.7599 8.5727 63.679 9.02761 63.6382 9.28322C63.5974 9.53883 63.5439 9.80025 63.5194 9.86415C63.478 9.97221 63.338 10.693 63.1811 11.607C63.1445 11.82 63.0611 12.2557 62.9958 12.5752C62.9304 12.8947 62.8189 13.4524 62.7479 13.8145C62.6769 14.1766 62.5701 14.7169 62.5107 15.0151C62.4512 15.3133 62.3672 15.7839 62.3239 16.0608C62.2806 16.3377 62.2137 16.6688 62.1754 16.7966C62.1371 16.9244 62.0833 17.1945 62.056 17.3969L62.0061 17.7648H64.2472H66.4881L66.5719 17.4357C66.618 17.2546 66.6712 17.0019 66.6901 16.8741C66.709 16.7463 66.7837 16.3454 66.8561 15.9833C66.9284 15.6212 67.0365 15.0809 67.0961 14.7827C67.1558 14.4845 67.2394 14.0314 67.282 13.7758C67.3246 13.5202 67.3914 13.189 67.4304 13.0399C67.4694 12.8908 67.5607 12.4203 67.6334 11.9942C67.7061 11.5682 67.7951 11.1151 67.8313 10.9873C67.8675 10.8595 67.9334 10.5458 67.9777 10.2902C68.022 10.0346 68.1104 9.564 68.1742 9.24449C68.2379 8.92498 68.3253 8.44172 68.3684 8.17054C68.4114 7.89936 68.4657 7.64661 68.4889 7.60897C68.5122 7.57125 69.4229 7.54042 70.5127 7.54042C72.6979 7.54042 72.6969 7.54065 72.7024 7.04802C72.7038 6.92633 72.7547 6.5952 72.8157 6.31217C73.0378 5.28051 73.1639 4.63064 73.1859 4.40338L73.2083 4.171L66.9514 4.15117C61.9864 4.13545 60.6869 4.15141 60.6581 4.22863ZM76.6189 4.30655C76.4888 4.7926 76.4269 5.06688 76.3437 5.52651C76.1963 6.33998 76.128 6.6945 76.0081 7.26932C75.7314 8.59462 75.6356 9.0809 75.5656 9.51373C75.5244 9.76834 75.4586 10.082 75.4195 10.2109C75.3803 10.3397 75.3077 10.6716 75.2582 10.9486C75.1397 11.6103 75.0581 12.0327 74.9212 12.6914C74.6661 13.9181 74.5524 14.4943 74.4885 14.8835C74.4515 15.1094 74.3848 15.4579 74.3404 15.6581C74.0694 16.8787 74.0212 17.1244 74.0214 17.2859C74.0216 17.3845 73.9852 17.5334 73.9405 17.6168C73.8604 17.7666 73.9141 17.768 78.6074 17.7404C83.6759 17.7106 83.853 17.6985 85.0201 17.3006C86.7005 16.7277 87.6466 15.8018 88.0002 14.3843C88.3453 13.0012 87.8904 11.7606 86.783 11.0638C86.5806 10.9365 86.4151 10.8094 86.415 10.7812C86.415 10.7531 86.5678 10.656 86.7546 10.5655C87.3979 10.2542 88.0486 9.59754 88.3702 8.93543C88.6026 8.45705 88.6154 8.38347 88.6188 7.50169C88.6221 6.64175 88.6066 6.53989 88.4105 6.14068C88.1441 5.59832 87.5971 5.07711 86.9958 4.79276C85.8216 4.23746 84.7239 4.13127 80.1654 4.13181L76.6657 4.13227L76.6189 4.30655ZM93.5006 4.26783C93.4693 4.34234 93.3995 4.64737 93.3455 4.94558C93.2915 5.24379 93.1887 5.80149 93.1171 6.18491C93.0455 6.56832 92.9566 7.04918 92.9195 7.25344C92.8824 7.45769 92.8293 7.69657 92.8015 7.78433C92.7736 7.87201 92.7206 8.12313 92.6837 8.34242C92.6148 8.75116 92.4918 9.40196 92.264 10.5613C92.0155 11.8272 91.9094 12.385 91.8309 12.8406C91.7873 13.0931 91.7359 13.3251 91.7168 13.3562C91.6976 13.3872 91.6481 13.6164 91.6069 13.8653C91.5657 14.1143 91.4811 14.5794 91.419 14.8989C91.3568 15.2184 91.2495 15.7761 91.1803 16.1382C91.1112 16.5003 91.0237 16.9535 90.9857 17.1452C90.9477 17.3369 90.9146 17.5548 90.9121 17.6293C90.9077 17.7572 91.2259 17.7648 96.5475 17.7648H102.188L102.281 17.2033C102.466 16.0831 102.679 14.9808 102.762 14.7132C102.8 14.5899 102.813 14.4592 102.79 14.4228C102.768 14.3864 101.25 14.3567 99.4185 14.3567H96.0876L96.136 13.9888C96.2059 13.4567 96.3474 12.8613 96.4303 12.7504C96.4845 12.6777 97.2097 12.6495 99.4172 12.6342L102.332 12.6139L102.388 12.3428C102.419 12.1937 102.499 11.7929 102.567 11.452C102.634 11.1112 102.74 10.6009 102.801 10.3178C102.863 10.0348 102.913 9.69498 102.913 9.56261V9.32195H100.063C98.1144 9.32195 97.1859 9.2953 97.1283 9.23775C97.0677 9.17718 97.074 9.04155 97.1506 8.75364C97.2092 8.53374 97.2576 8.25954 97.258 8.14436C97.2586 8.02918 97.2994 7.84622 97.3489 7.7377L97.4388 7.54042H100.71C103.751 7.54042 103.985 7.53089 104.042 7.40487C104.076 7.33035 104.147 7.02532 104.2 6.72711C104.253 6.4289 104.352 5.90606 104.42 5.56524C104.488 5.22443 104.565 4.76255 104.59 4.53893L104.637 4.13227H99.0971C93.8947 4.13227 93.5541 4.14056 93.5006 4.26783ZM108.079 4.19037C108.03 4.27573 107.753 5.58794 107.674 6.10745C107.648 6.27786 107.597 6.50442 107.561 6.61092C107.524 6.71743 107.473 6.9701 107.446 7.17249L107.396 7.54042H109.376C111.584 7.54042 111.446 7.50122 111.278 8.08316C111.235 8.23196 111.162 8.56286 111.115 8.81847C111.069 9.07408 110.981 9.54464 110.919 9.86415C110.858 10.1837 110.774 10.6368 110.734 10.8711C110.693 11.1054 110.627 11.4365 110.588 11.607C110.549 11.7774 110.462 12.2043 110.394 12.5558C110.327 12.9073 110.217 13.4824 110.149 13.8339C110.082 14.1854 109.996 14.6123 109.957 14.7827C109.919 14.9531 109.849 15.3017 109.801 15.5573C109.754 15.8129 109.663 16.3009 109.599 16.6417C109.535 16.9825 109.465 17.3746 109.443 17.5131L109.403 17.7648H111.656H113.909L113.945 17.5906C114.187 16.4018 114.304 15.7934 114.38 15.3249C114.422 15.0693 114.476 14.8079 114.501 14.744C114.526 14.6801 114.576 14.4361 114.614 14.2018C114.651 13.9675 114.737 13.4969 114.806 13.1561C114.875 12.8153 114.979 12.2925 115.037 11.9942C115.096 11.696 115.197 11.1906 115.262 10.8711C115.328 10.5516 115.416 10.0636 115.459 9.78669C115.502 9.50978 115.57 9.14379 115.609 8.97339C115.649 8.80298 115.723 8.45442 115.774 8.19881C115.825 7.9432 115.901 7.69053 115.944 7.63724C116.003 7.56435 116.514 7.54042 118.011 7.54042H120L120.1 7.01758C120.252 6.21705 120.319 5.84618 120.417 5.25541C120.467 4.9572 120.54 4.65271 120.579 4.57874C120.619 4.50477 120.651 4.37402 120.651 4.28827C120.651 4.1332 120.614 4.13227 114.382 4.13227C110.933 4.13227 108.097 4.15838 108.079 4.19037ZM80.3794 7.68371C80.3334 7.76969 80.2957 7.93181 80.2957 8.04389C80.2957 8.15597 80.2655 8.3064 80.2286 8.3782C80.1918 8.44993 80.1379 8.69469 80.1089 8.92203L80.0562 9.33543L81.3185 9.30498C82.6833 9.27207 82.9164 9.2111 83.2372 8.80329C83.4579 8.52266 83.4445 8.07263 83.2072 7.79649L83.0204 7.57915L81.7418 7.5532C80.5245 7.52857 80.4591 7.53484 80.3794 7.68371ZM79.3929 12.7495C79.3599 12.8027 79.2898 13.0903 79.2371 13.3885C79.1844 13.6867 79.1177 14.0292 79.0887 14.1497L79.0361 14.3686L80.5912 14.3433L82.1464 14.318L82.4146 14.0579C82.9009 13.5862 82.8483 12.9385 82.3087 12.7538C81.9247 12.6224 79.4738 12.6188 79.3929 12.7495ZM44.5962 21.2288C44.3209 21.2812 43.5999 21.6893 43.3214 21.9504L43.0772 22.1792L79.9241 22.1796L116.771 22.1799L116.644 21.9585C116.574 21.8367 116.393 21.654 116.241 21.5525C116.089 21.4511 115.94 21.3329 115.91 21.2899C115.855 21.2123 45.0014 21.1517 44.5962 21.2288Z" fill="#AFB1B8"></path></svg> 