<?xml version="1.0" encoding="UTF-8"?> <svg xmlns="http://www.w3.org/2000/svg" width="135" height="19" viewBox="0 0 135 19" fill="none"><path d="M128.336 5.96085H124.667V18.8332H128.336V5.96085ZM66.9121 5.53925C67.7633 5.51943 68.6092 5.67936 69.3944 6.00859C70.1796 6.33782 70.8865 6.82895 71.469 7.44991C72.0732 8.07816 72.5459 8.8207 72.8593 9.634C73.1728 10.4473 73.3207 11.315 73.2945 12.1862C73.2945 14.0745 72.6845 15.6532 71.469 16.9225C70.8865 17.5435 70.1796 18.0346 69.3944 18.3638C68.6092 18.6931 67.7633 18.853 66.9121 18.8332C66.125 18.8553 65.3421 18.71 64.6153 18.4069C63.8885 18.1038 63.2343 17.6498 62.6961 17.075V18.582H59.2246V2.28304H62.6961V7.3019C63.2339 6.72626 63.8879 6.27144 64.6147 5.96756C65.3415 5.66369 66.1246 5.51769 66.9121 5.53925ZM63.7008 14.7517C64.0259 15.0823 64.4143 15.3439 64.8427 15.5212C65.2711 15.6984 65.7309 15.7875 66.1945 15.7833C67.129 15.7804 68.0248 15.4098 68.6882 14.7517C69.0192 14.4133 69.2786 14.0118 69.4512 13.571C69.6238 13.1303 69.706 12.6594 69.6929 12.1862C69.6929 11.1636 69.3565 10.3114 68.6882 9.62969C68.3606 9.30246 67.9708 9.04418 67.5417 8.87009C67.1126 8.696 66.653 8.60961 66.19 8.61605C65.2574 8.62157 64.3639 8.99183 63.7008 9.64763C63.3722 9.98129 63.114 10.3775 62.9415 10.8128C62.7689 11.2481 62.6854 11.7136 62.6961 12.1817C62.6961 13.2133 63.0325 14.0655 63.7008 14.7517ZM81.2466 5.34638C83.3995 5.34638 85.1263 6.13128 86.4314 7.70108C87.7321 9.27088 88.212 11.1367 87.8577 13.2985H77.968C78.1731 14.0637 78.6297 14.7377 79.2642 15.212C79.8988 15.6863 80.6744 15.9333 81.4664 15.9134C82.9286 15.9134 83.987 15.3124 84.6508 14.1059L87.4092 15.3617C86.8378 16.4102 85.9931 17.2843 84.9648 17.8913C83.8781 18.5292 82.6366 18.8551 81.3767 18.8332C79.4167 18.8332 77.7886 18.1873 76.4879 16.8956C75.8479 16.2725 75.3426 15.5247 75.0031 14.6984C74.6637 13.8722 74.4974 12.9851 74.5144 12.092C74.5144 10.1769 75.1603 8.57568 76.452 7.28396C77.0771 6.65016 77.8254 6.15123 78.6508 5.81797C79.4762 5.48471 80.3612 5.32422 81.2511 5.34638H81.2466ZM81.2466 8.26621C80.5238 8.25882 79.8195 8.49413 79.2463 8.93449C78.6583 9.37897 78.2277 9.9997 78.0173 10.7061H84.5028C84.2923 10.0021 83.8655 9.38226 83.2829 8.93449C82.6998 8.48598 81.9822 8.25275 81.2466 8.26621ZM91.2171 8.89413H88.5843V5.916H91.2171V2.10812L94.6348 1.05859V5.916H100.761V2.10812L104.179 1.05859V5.916H107.543V8.89413H104.179V14.0296C104.179 15.2451 104.794 15.8551 106.023 15.8551H107.543V18.8332H106.018C104.233 18.8332 102.91 18.4206 102.049 17.5953C101.188 16.7655 100.757 15.5097 100.752 13.8278V8.89413H94.6348V14.0341C94.6348 15.2541 95.2492 15.864 96.4826 15.864H98.0255V18.8332H96.4826C94.6931 18.8332 93.3699 18.4206 92.5088 17.5953C91.6477 16.7655 91.2171 15.5097 91.2126 13.8278L91.2171 8.89413ZM115.495 5.34638C117.648 5.34638 119.375 6.13128 120.68 7.70108C121.985 9.27088 122.461 11.1367 122.111 13.303H112.208C112.415 14.0678 112.873 14.741 113.508 15.215C114.143 15.689 114.918 15.9365 115.71 15.9179C117.173 15.9179 118.231 15.3124 118.895 14.1059L121.653 15.3617C121.082 16.41 120.237 17.2842 119.209 17.8913C118.122 18.5294 116.881 18.8553 115.621 18.8332C113.661 18.8332 112.033 18.1873 110.723 16.8956C110.084 16.2714 109.58 15.5225 109.243 14.6954C108.906 13.8682 108.742 12.9805 108.763 12.0875C108.763 10.1769 109.409 8.57568 110.701 7.28396C111.324 6.6502 112.07 6.1512 112.894 5.8179C113.718 5.48461 114.602 5.32412 115.491 5.34638H115.495ZM115.495 8.26621C114.772 8.25671 114.067 8.49225 113.495 8.93449C112.906 9.38058 112.476 10.0028 112.266 10.7106H118.751C118.542 10.005 118.115 9.38344 117.531 8.93449C116.948 8.48598 116.231 8.25275 115.495 8.26621Z" fill="#AFB1B8"></path><path opacity="0.8" d="M134.334 7.42076C134.408 6.07756 133.283 4.92561 131.827 4.8411C130.371 4.76104 129.125 5.77512 129.052 7.11832C128.979 8.46152 130.099 9.61347 131.555 9.69798C133.016 9.77803 134.257 8.76396 134.33 7.42076H134.334Z" fill="#AFB1B8"></path><path d="M132.566 8.75939C134.032 7.92964 134.741 6.42712 134.136 5.40451C133.539 4.38639 131.857 4.23389 130.391 5.06364C128.919 5.89788 128.215 7.4004 128.816 8.42301C129.413 9.44114 131.095 9.59363 132.566 8.75939Z" fill="#AFB1B8"></path><path d="M23.0886 13.1101C19.2493 13.0204 18.5496 7.54402 20.5993 5.57505C22.501 3.76305 26.8426 4.41788 26.735 8.91648C26.6767 11.3474 25.1427 13.1101 23.093 13.1101H23.0886ZM23.6402 2.28296C21.3618 2.30987 20.2943 2.79426 19.3883 3.51189L19.3479 2.43097H15.8047C15.8809 6.66494 15.8809 15.097 15.8047 18.8331H19.3345C19.3883 17.667 19.4152 16.5905 19.4466 14.5633C22.8777 18.1873 30.3096 16.4605 30.4801 9.12279C30.6056 3.476 26.8247 2.29193 23.6402 2.28296Z" fill="#AFB1B8"></path><path d="M36.4039 4.73657H32.5826C32.8652 8.39644 32.8696 13.9311 32.3135 17.6089H36.1393C36.6955 13.9311 36.6955 8.38299 36.4039 4.73657Z" fill="#AFB1B8"></path><path d="M47.5324 5.96094C45.5903 6.00579 44.4197 6.64268 43.3701 8.23042C43.3388 7.28854 43.3343 7.10016 43.2894 6.23453H39.7103C39.9794 12.3343 39.5712 17.2769 39.042 18.8333H42.5359C43.0158 17.4474 43.2177 15.0478 43.3074 13.2717C43.3522 12.4464 43.4554 11.5629 44.2627 10.6479C45.541 9.20369 48.1558 9.262 49.1874 11.3027C49.452 11.8454 49.5686 12.4464 49.5282 13.0519C49.4924 14.1104 49.3937 17.0886 48.8465 18.8243H52.3359C52.6499 17.8824 52.9549 15.9673 53.0805 13.8144C53.2958 10.1276 52.4346 5.96542 47.5368 5.96991V5.96094H47.5324Z" fill="#AFB1B8"></path><path d="M35.1541 0.444092C30.5344 0.457547 31.8844 2.18432 31.8979 2.20227C33.2659 3.87971 37.2442 2.1305 37.2083 1.02716C37.2038 0.780477 36.984 0.444092 35.1586 0.444092H35.1541Z" fill="#AFB1B8"></path><path d="M6.49305 0.444092C-1.28417 0.511369 0.110704 5.49884 1.36654 6.78159C2.51922 7.94772 5.70815 8.40969 6.659 8.53079C9.70441 8.89857 9.42185 11.4282 6.33607 11.4058C4.31776 11.3923 3.87373 10.4504 3.70778 9.53098L-0.100098 10.2935C0.958394 15.1823 10.4086 14.644 12.2878 11.5941C13.2522 10.0378 12.391 8.14507 12.3865 8.12713C12.2095 7.75282 11.9699 7.41152 11.6779 7.11797C10.4086 5.86214 6.80701 5.39568 6.39886 5.34186C5.78672 5.29956 5.19478 5.10533 4.67657 4.77673C3.83785 4.17573 4.04865 2.90195 5.73955 2.66423C6.70834 2.52968 8.38578 2.54314 8.73114 4.20264L8.7715 4.43138L12.5614 3.67787C12.3955 2.7943 11.947 0.448577 6.48857 0.444092H6.49305Z" fill="#AFB1B8"></path><path d="M6.89677 16.3799C2.91846 16.492 1.42491 18.1201 1.14234 18.6225C1.12368 18.655 1.11732 18.6932 1.1244 18.7301C1.13337 18.766 1.1558 18.8019 1.18271 18.8198C1.20962 18.8333 1.23653 18.8333 1.26793 18.8333L4.97713 18.8243C4.97713 18.8243 4.94574 18.8063 4.96368 18.748C5.12066 18.3085 8.02254 18.0304 9.5744 18.7929C10.7091 18.757 12.2206 18.7122 13.3554 18.6673C12.5839 17.8465 10.7271 16.4651 6.89677 16.3799Z" fill="#AFB1B8"></path><path d="M52.4974 2.283H49.0663C49.016 2.0415 48.9562 1.8021 48.8869 1.56538C48.8374 1.39905 48.7744 1.23704 48.6985 1.08098C48.6716 1.03613 48.5684 0.856724 48.1065 0.793932C46.8461 0.623497 42.6256 0.210865 42.8633 1.13032C42.9127 1.29178 42.9127 1.32766 42.971 1.56089C43.0203 1.77169 43.0696 2.0094 43.119 2.283H39.6834C39.5488 1.31869 39.338 0.533795 39.042 0.444092L50.8289 0.457547C51.6452 0.466517 51.7977 0.636953 51.9547 0.811873C52.0668 0.991278 52.1565 1.17965 52.2238 1.37251C52.327 1.64162 52.4122 1.91073 52.475 2.18881L52.4974 2.27851V2.283Z" fill="#AFB1B8"></path></svg> 